<?xml version="1.0" encoding="utf-8"?>
<!-- Generator: Adobe Illustrator 17.0.0, SVG Export Plug-In . SVG Version: 6.00 Build 0)  -->
<!DOCTYPE svg PUBLIC "-//W3C//DTD SVG 1.1//EN" "http://www.w3.org/Graphics/SVG/1.1/DTD/svg11.dtd">
<svg version="1.1" id="Layer_1" xmlns="http://www.w3.org/2000/svg" xmlns:xlink="http://www.w3.org/1999/xlink" x="0px" y="0px"
	 width="26px" height="26px" viewBox="0 0 26 26" enable-background="new 0 0 26 26" xml:space="preserve">
<g>
	<g>
		<path fill="#231F20" d="M24.841,12.613H1.159V0.161h23.682V12.613z M2.876,10.763h20.248V2.011H2.876V10.763z"/>
	</g>
	<path fill="#010101" d="M10.276,24.96l-1.275-0.75c1.956-3.858,1.985-8.609,1.985-8.657h1.453
		C12.439,15.763,12.415,20.743,10.276,24.96"/>
	<path fill="#010101" d="M15.947,24.96c-2.137-4.217-2.161-9.196-2.161-9.407h1.453h-0.726h0.726c0,0.048,0.028,4.799,1.983,8.657
		L15.947,24.96"/>
	<g>
		<path fill="#010101" d="M5.007,22.126l-0.625-1.412c3.549-1.823,3.684-5.151,3.686-5.185H9.52
			C9.514,15.705,9.346,19.897,5.007,22.126z"/>
	</g>
	<g>
		<path fill="#010101" d="M20.993,22.126c-4.339-2.23-4.509-6.425-4.514-6.601h1.453c0.005,0.137,0.171,3.383,3.686,5.189
			L20.993,22.126z"/>
	</g>
	<path fill="#171717" d="M0.223,0.161h0.935v2.941C1.159,0.162,0.223,0.161,0.223,0.161z"/>
	<path fill="#171717" d="M25.777,0.161h-0.935v2.941C24.841,0.162,25.777,0.161,25.777,0.161z"/>
	<path fill="#171717" d="M7.144,15.53h0.937v2.941C8.081,15.531,7.144,15.53,7.144,15.53z"/>
	<path fill="#171717" d="M18.861,15.525h-0.937v2.941C17.924,15.526,18.861,15.525,18.861,15.525z"/>
	<rect x="2.876" y="7.522" fill="#231F20" width="20.305" height="1.796"/>
</g>
</svg>
