<?xml version="1.0" encoding="utf-8"?>
<!-- Generator: Adobe Illustrator 17.0.0, SVG Export Plug-In . SVG Version: 6.00 Build 0)  -->
<!DOCTYPE svg PUBLIC "-//W3C//DTD SVG 1.1//EN" "http://www.w3.org/Graphics/SVG/1.1/DTD/svg11.dtd">
<svg version="1.1" id="Layer_1" xmlns="http://www.w3.org/2000/svg" xmlns:xlink="http://www.w3.org/1999/xlink" x="0px" y="0px"
	 width="23px" height="30px" viewBox="0 0 23 30" enable-background="new 0 0 23 30" xml:space="preserve">
<g>
	<path fill="#231F20" d="M15.979,5.622l4.896-5.204h-2.393H17.75c0,0,0.334,0.398-0.188,0.92L15.979,2.92V2.919l-2.503-2.501h-2.394
		L15.979,5.622L15.979,5.622z"/>
	<path fill="#231F20" d="M21.918,26.543V10.744c0-3.038,1.042-3.039,1.042-3.039H0.04c0,0,1.042,0.001,1.042,3.039v15.799
		c0,3.038-1.042,3.039-1.042,3.039H22.96C22.96,29.582,21.918,29.581,21.918,26.543z M3.166,27.498V9.789h7.292v17.709H3.166z
		 M19.835,27.498h-7.293V9.789h7.293V27.498z"/>
	<path fill="#231F20" d="M5.25,5.622c0,0-0.334-0.399,0.188-0.922l1.582-1.581V3.12l2.504,2.502h2.393L7.021,0.418l0,0L2.124,5.621
		h2.394L5.25,5.622z"/>
</g>
</svg>
