<?xml version="1.0" encoding="utf-8"?>
<!-- Generator: Adobe Illustrator 17.0.0, SVG Export Plug-In . SVG Version: 6.00 Build 0)  -->
<!DOCTYPE svg PUBLIC "-//W3C//DTD SVG 1.1//EN" "http://www.w3.org/Graphics/SVG/1.1/DTD/svg11.dtd">
<svg version="1.1" id="Layer_1" xmlns="http://www.w3.org/2000/svg" xmlns:xlink="http://www.w3.org/1999/xlink" x="0px" y="0px"
	 width="26px" height="26px" viewBox="0 0 26 26" enable-background="new 0 0 26 26" xml:space="preserve">
<g>
	<path fill="#171717" d="M19.171,5.163L6.843,9.982v8.3c0,3.454-1.185,3.455-1.185,3.455h14.697c0,0-1.185-0.001-1.185-3.455V5.163z
		 M17.499,7.612v4.222H8.514v-0.711L17.499,7.612z M17.499,20.067H8.514v-6.561h8.985V20.067z"/>
	<path fill="#171717" d="M24.839,21.975V0.57H7.238l-6.09,6.057v15.846C1.04,25.424-0.025,25.43-0.025,25.43h26.049
		C26.025,25.43,24.839,25.429,24.839,21.975z M7.12,3.753v2.786H4.319L7.12,3.753z M22.666,23.257H3.322V8.211h5.469V2.743h13.875
		V23.257z"/>
</g>
</svg>
