<?xml version="1.0" encoding="utf-8"?>
<!-- Generator: Adobe Illustrator 17.0.0, SVG Export Plug-In . SVG Version: 6.00 Build 0)  -->
<!DOCTYPE svg PUBLIC "-//W3C//DTD SVG 1.1//EN" "http://www.w3.org/Graphics/SVG/1.1/DTD/svg11.dtd">
<svg version="1.1" id="Layer_1" xmlns="http://www.w3.org/2000/svg" xmlns:xlink="http://www.w3.org/1999/xlink" x="0px" y="0px"
	 width="26px" height="26px" viewBox="0 0 26 26" enable-background="new 0 0 26 26" xml:space="preserve">
<g>
	<rect x="16.113" y="17.906" fill="#171717" width="1.225" height="1.41"/>
	<rect x="4.773" y="17.905" fill="#171717" width="1.224" height="1.412"/>
	<path fill="#171717" d="M23.906,23.933V2.068V0.129h-1.834H0.962H0.045c0,0,0.672,0.004,0.866,1.939h0.052h21.109v21.865h-3.08
		v-1.774h1.168v-7.095h-1.284l-1.932-3.689c0.262-0.628,0.579-0.629,0.579-0.629L4.588,10.751c0,0,0.319,0.001,0.58,0.631
		l-1.928,3.682H1.956v7.095h1.162v1.774H0.045c0,0,0.672,0.004,0.866,1.938h0.052h21.109h1.834h1.132h0.052
		c0.193-1.935,0.866-1.938,0.866-1.938H23.906z M6.452,12.685h9.212l1.244,2.378H5.206L6.452,12.685z M17.048,23.933H5.062v-1.774
		h11.986V23.933z M18.476,20.219H3.64v-3.217h14.836V20.219z"/>
</g>
</svg>
