<?xml version="1.0" encoding="utf-8"?>
<!-- Generator: Adobe Illustrator 17.0.0, SVG Export Plug-In . SVG Version: 6.00 Build 0)  -->
<!DOCTYPE svg PUBLIC "-//W3C//DTD SVG 1.1//EN" "http://www.w3.org/Graphics/SVG/1.1/DTD/svg11.dtd">
<svg version="1.1" id="Layer_1" xmlns="http://www.w3.org/2000/svg" xmlns:xlink="http://www.w3.org/1999/xlink" x="0px" y="0px"
	 width="26px" height="26px" viewBox="0 0 26 26" enable-background="new 0 0 26 26" xml:space="preserve">
<g>
	<g>
		<path fill="#231F20" d="M13.001,0.12L0.141,5.507v10.853c0,2.256,1.329,4.313,3.386,5.243l9.474,4.277l9.474-4.277
			c2.055-0.93,3.384-2.987,3.384-5.243V5.507L13.001,0.12z M23.713,16.359c0,1.414-0.834,2.705-2.122,3.287l-8.59,3.879
			l-8.592-3.879c-1.288-0.582-2.12-1.873-2.12-3.287V6.934l10.712-4.487l10.712,4.487V16.359z"/>
		<path fill="#231F20" d="M16.849,10.046V6.36H9.134v5.257H7.524H6.353c0,0,1.171,0.001,1.171,3.413v3.695H18.46v-4.072
			c0.083-3.032,1.163-3.035,1.163-3.035H18.46h-0.006h-7.669V8.011H15.2v2.035H16.849z M16.809,17.073H9.175v-3.806h7.634V17.073z"
			/>
	</g>
	<rect x="12.317" y="14.498" fill="#171717" width="1.343" height="1.345"/>
</g>
</svg>
