<?xml version="1.0" encoding="utf-8"?>
<!-- Generator: Adobe Illustrator 17.0.0, SVG Export Plug-In . SVG Version: 6.00 Build 0)  -->
<!DOCTYPE svg PUBLIC "-//W3C//DTD SVG 1.1//EN" "http://www.w3.org/Graphics/SVG/1.1/DTD/svg11.dtd">
<svg version="1.1" id="Layer_1" xmlns="http://www.w3.org/2000/svg" xmlns:xlink="http://www.w3.org/1999/xlink" x="0px" y="0px"
	 width="7px" height="8px" viewBox="0 0 7 8" enable-background="new 0 0 7 8" xml:space="preserve">
<path fill-rule="evenodd" clip-rule="evenodd" fill="#FCFCFC" d="M4.187,5.794c0.49-0.494,0.979-0.987,1.47-1.479
	c0.09-0.09,0.177-0.186,0.281-0.256c0.265-0.181,0.609-0.151,0.791,0.08c0.21,0.264,0.204,0.544-0.033,0.788
	C6.264,5.374,5.82,5.81,5.381,6.249C4.924,6.706,4.468,7.167,4.008,7.62C3.635,7.99,3.364,7.991,3.002,7.632
	C2.131,6.763,1.261,5.892,0.391,5.023c-0.319-0.32-0.347-0.676-0.079-0.929c0.273-0.258,0.572-0.223,0.901,0.09
	c0.558,0.529,1.124,1.051,1.671,1.563C2.887,5.712,2.898,5.605,2.898,5.5C2.9,4.002,2.899,2.506,2.899,1.009
	c0-0.089-0.003-0.177,0.002-0.266C2.922,0.346,3.154,0.097,3.5,0.094C3.84,0.092,4.09,0.346,4.096,0.743
	c0.011,0.709,0.003,1.418,0.003,2.129c0,0.961,0,1.921,0,2.884C4.129,5.769,4.158,5.781,4.187,5.794z"/>
</svg>
