<?xml version="1.0" encoding="utf-8"?>
<!-- Generator: Adobe Illustrator 17.0.0, SVG Export Plug-In . SVG Version: 6.00 Build 0)  -->
<!DOCTYPE svg PUBLIC "-//W3C//DTD SVG 1.1//EN" "http://www.w3.org/Graphics/SVG/1.1/DTD/svg11.dtd">
<svg version="1.1" id="Layer_1" xmlns="http://www.w3.org/2000/svg" xmlns:xlink="http://www.w3.org/1999/xlink" x="0px" y="0px"
	 width="19px" height="19px" viewBox="0 0 19 19" enable-background="new 0 0 19 19" xml:space="preserve">
<g>
	<g>
		<line fill="#FFFFFF" x1="1.116" y1="1.116" x2="17.884" y2="17.884"/>
		<path fill="#FFFFFF" d="M17.884,18.544c-0.169,0-0.338-0.065-0.467-0.194L0.649,1.583c-0.258-0.257-0.258-0.675,0-0.933
			c0.258-0.258,0.675-0.258,0.933,0l16.768,16.768c0.258,0.258,0.258,0.676,0,0.933C18.222,18.48,18.053,18.544,17.884,18.544z"/>
	</g>
	<g>
		<line fill="#FFFFFF" x1="1.116" y1="17.884" x2="17.884" y2="1.116"/>
		<path fill="#FFFFFF" d="M1.116,18.544c-0.169,0-0.338-0.065-0.467-0.194c-0.258-0.257-0.258-0.675,0-0.933L17.417,0.649
			c0.258-0.258,0.675-0.258,0.933,0c0.258,0.258,0.258,0.676,0,0.933L1.583,18.351C1.454,18.48,1.285,18.544,1.116,18.544z"/>
	</g>
</g>
</svg>
