<?xml version="1.0" encoding="utf-8"?>
<!-- Generator: Adobe Illustrator 17.0.0, SVG Export Plug-In . SVG Version: 6.00 Build 0)  -->
<!DOCTYPE svg PUBLIC "-//W3C//DTD SVG 1.1//EN" "http://www.w3.org/Graphics/SVG/1.1/DTD/svg11.dtd">
<svg version="1.1" id="Layer_1" xmlns="http://www.w3.org/2000/svg" xmlns:xlink="http://www.w3.org/1999/xlink" x="0px" y="0px"
	 width="582px" height="344px" viewBox="0 0 582 344" enable-background="new 0 0 582 344" xml:space="preserve">
<g>
	<polyline fill="none" stroke="#808285" stroke-width="1.7318" stroke-miterlimit="10" points="160.585,218.31 160.585,233.938 
		168.287,233.938 	"/>
	<path fill="none" stroke="#808285" stroke-width="1.7318" stroke-miterlimit="10" d="M60.256,174.298H42.299L7.683,339.966h468.655
		L530.191,164.3l-26.289-5.767l9.617-33.335l61.548-18.593c0,0-9.62-63.474-7.693-102.578H29.487L60.256,174.298z"/>
	<polyline fill="none" stroke="#808285" stroke-width="1.7318" stroke-miterlimit="10" points="409.66,107.723 422.166,107.723 
		422.166,234.181 412.06,234.181 	"/>
	
		<line fill="none" stroke="#808285" stroke-width="1.7318" stroke-miterlimit="10" x1="394.753" y1="107.723" x2="298.104" y2="107.723"/>
	
		<line fill="none" stroke="#808285" stroke-width="1.7318" stroke-miterlimit="10" x1="281.278" y1="107.723" x2="184.149" y2="107.723"/>
	<polyline fill="none" stroke="#808285" stroke-width="1.7318" stroke-miterlimit="10" points="168.283,107.723 160.585,107.723 
		160.585,124.555 	"/>
	
		<line fill="none" stroke="#808285" stroke-width="1.7318" stroke-miterlimit="10" x1="184.149" y1="234.182" x2="281.278" y2="234.182"/>
	
		<line fill="none" stroke="#808285" stroke-width="1.7318" stroke-miterlimit="10" x1="298.106" y1="234.182" x2="392.353" y2="234.182"/>
	
		<line fill="none" stroke="#808285" stroke-width="1.7318" stroke-miterlimit="10" x1="370.059" y1="233.938" x2="370.059" y2="339.966"/>
	
		<line fill="none" stroke="#808285" stroke-width="1.7318" stroke-miterlimit="10" x1="212.036" y1="233.938" x2="212.036" y2="339.966"/>
	<polyline fill="none" stroke="#808285" stroke-width="1.7318" stroke-miterlimit="10" points="74.522,168.786 74.522,121.19 
		50.655,121.19 	"/>
	
		<line fill="none" stroke="#808285" stroke-width="1.7318" stroke-miterlimit="10" x1="124.369" y1="124.551" x2="184.153" y2="124.551"/>
	
		<line fill="none" stroke="#808285" stroke-width="1.7318" stroke-miterlimit="10" x1="124.369" y1="218.31" x2="184.153" y2="218.31"/>
	
		<line fill="none" stroke="#808285" stroke-width="1.7318" stroke-miterlimit="10" x1="140.394" y1="218.31" x2="140.394" y2="124.551"/>
	
		<rect x="212.036" y="124.551" fill="none" stroke="#808285" stroke-width="1.7318" stroke-miterlimit="10" width="28.695" height="93.759"/>
	
		<rect x="273.902" y="124.551" fill="none" stroke="#808285" stroke-width="1.7318" stroke-miterlimit="10" width="28.695" height="93.759"/>
	
		<line fill="none" stroke="#808285" stroke-width="1.7318" stroke-miterlimit="10" x1="236.554" y1="218.31" x2="247.137" y2="218.31"/>
	<polyline fill="none" stroke="#808285" stroke-width="1.7318" stroke-miterlimit="10" points="281.278,218.31 258.359,218.31 
		256.116,218.31 256.116,203.087 	"/>
	<polyline fill="none" stroke="#808285" stroke-width="1.7318" stroke-miterlimit="10" points="319.256,218.31 360.294,218.31 
		360.294,205.012 	"/>
	
		<line fill="none" stroke="#808285" stroke-width="1.7318" stroke-miterlimit="10" x1="360.294" y1="193.789" x2="360.294" y2="176.485"/>
	
		<line fill="none" stroke="#808285" stroke-width="1.7318" stroke-miterlimit="10" x1="360.294" y1="164.62" x2="360.294" y2="147.315"/>
	<polyline fill="none" stroke="#808285" stroke-width="1.7318" stroke-miterlimit="10" points="360.294,135.774 360.294,124.555 
		317.335,124.555 	"/>
	
		<line fill="none" stroke="#808285" stroke-width="1.7318" stroke-miterlimit="10" x1="331.764" y1="124.551" x2="331.764" y2="218.413"/>
	
		<line fill="none" stroke="#808285" stroke-width="1.7318" stroke-miterlimit="10" x1="360.294" y1="185.133" x2="331.76" y2="185.133"/>
	
		<line fill="none" stroke="#808285" stroke-width="1.7318" stroke-miterlimit="10" x1="360.294" y1="155.964" x2="331.76" y2="155.964"/>
	<polyline fill="none" stroke="#808285" stroke-width="1.7318" stroke-miterlimit="10" points="422.162,124.551 392.353,124.551 
		392.353,135.771 	"/>
	
		<line fill="none" stroke="#808285" stroke-width="1.7318" stroke-miterlimit="10" x1="392.353" y1="147.308" x2="392.353" y2="164.62"/>
	
		<line fill="none" stroke="#808285" stroke-width="1.7318" stroke-miterlimit="10" x1="392.353" y1="176.481" x2="392.353" y2="193.789"/>
	<polyline fill="none" stroke="#808285" stroke-width="1.7318" stroke-miterlimit="10" points="392.353,205.012 392.353,218.31 
		422.518,218.31 	"/>
	
		<line fill="none" stroke="#808285" stroke-width="1.7318" stroke-miterlimit="10" x1="392.353" y1="185.133" x2="422.162" y2="185.133"/>
	
		<line fill="none" stroke="#808285" stroke-width="1.7318" stroke-miterlimit="10" x1="392.353" y1="155.964" x2="422.162" y2="155.964"/>
	
		<line fill="none" stroke="#808285" stroke-width="1.7318" stroke-miterlimit="10" x1="302.598" y1="157.889" x2="331.76" y2="157.889"/>
	
		<line fill="none" stroke="#808285" stroke-width="1.7318" stroke-miterlimit="10" x1="317.335" y1="157.889" x2="317.335" y2="137.379"/>
	
		<line fill="none" stroke="#808285" stroke-width="1.7318" stroke-miterlimit="10" x1="275.026" y1="124.551" x2="254.831" y2="124.551"/>
	
		<line fill="none" stroke="#808285" stroke-width="1.7318" stroke-miterlimit="10" x1="240.732" y1="164.62" x2="273.908" y2="164.62"/>
	<polyline fill="none" stroke="#808285" stroke-width="1.7318" stroke-miterlimit="10" points="184.149,208.861 184.149,171.991 
		211.665,171.991 	"/>
	
		<line fill="none" stroke="#808285" stroke-width="1.7318" stroke-miterlimit="10" x1="184.149" y1="197.96" x2="192.008" y2="197.96"/>
	
		<line fill="none" stroke="#808285" stroke-width="1.7318" stroke-miterlimit="10" x1="201.933" y1="197.96" x2="211.665" y2="197.96"/>
	<polyline fill="none" stroke="#808285" stroke-width="1.7318" stroke-miterlimit="10" points="188.076,171.991 188.076,144.986 
		193.283,144.986 	"/>
	
		<line fill="none" stroke="#808285" stroke-width="1.7318" stroke-miterlimit="10" x1="204.827" y1="144.984" x2="212.036" y2="144.984"/>
	
		<line fill="none" stroke="#808285" stroke-width="1.7318" stroke-miterlimit="10" x1="212.036" y1="124.551" x2="202.899" y2="124.551"/>
	<polyline fill="none" stroke="#808285" stroke-width="1.7318" stroke-miterlimit="10" points="140.727,147.626 174.056,147.626 
		174.056,135.774 	"/>
	<polyline fill="none" stroke="#808285" stroke-width="1.7318" stroke-miterlimit="10" points="174.051,160.456 174.051,197.963 
		168.283,197.963 168.283,203.087 140.394,203.087 	"/>
	
		<line fill="none" stroke="#808285" stroke-width="1.7318" stroke-miterlimit="10" x1="240.732" y1="139.941" x2="257.317" y2="139.941"/>
	
		<line fill="none" stroke="#808285" stroke-width="1.7318" stroke-miterlimit="10" x1="241.848" y1="190.428" x2="257.317" y2="190.428"/>
	<polyline fill="none" stroke="#808285" stroke-width="1.7318" stroke-miterlimit="10" points="140.394,177.442 74.522,177.442 
		74.522,226.125 31.471,226.125 	"/>
	
		<line fill="none" stroke="#808285" stroke-width="1.7318" stroke-miterlimit="10" x1="213.16" y1="107.723" x2="213.16" y2="4.026"/>
	
		<line fill="none" stroke="#808285" stroke-width="1.7318" stroke-miterlimit="10" x1="366.707" y1="107.723" x2="366.707" y2="4.026"/>
	
		<line fill="none" stroke="#808285" stroke-width="1.7318" stroke-miterlimit="10" x1="422.162" y1="158.493" x2="503.902" y2="158.493"/>
	<rect x="331.644" y="124.555" fill="none" width="28.527" height="31.412"/>
	<rect x="331.644" y="185.86" fill="none" width="28.527" height="31.414"/>
	<rect x="188.829" y="145.661" fill="none" width="22.743" height="25.771"/>
	<rect x="392.991" y="124.555" fill="none" width="28.531" height="31.412"/>
	
		<line fill="none" stroke="#808285" stroke-width="0.8659" stroke-miterlimit="10" x1="309.628" y1="207.52" x2="309.628" y2="168.888"/>
	<g>
		
			<line fill="none" stroke="#808285" stroke-width="0.8659" stroke-miterlimit="10" x1="324.806" y1="207.52" x2="324.806" y2="168.888"/>
		
			<line fill="none" stroke="#808285" stroke-width="0.8659" stroke-miterlimit="10" x1="309.55" y1="204.031" x2="324.225" y2="204.031"/>
		
			<line fill="none" stroke="#808285" stroke-width="0.8659" stroke-miterlimit="10" x1="309.55" y1="199.021" x2="324.225" y2="199.021"/>
		
			<line fill="none" stroke="#808285" stroke-width="0.8659" stroke-miterlimit="10" x1="309.55" y1="193.979" x2="324.225" y2="193.979"/>
		
			<line fill="none" stroke="#808285" stroke-width="0.8659" stroke-miterlimit="10" x1="309.55" y1="189.039" x2="324.225" y2="189.039"/>
		
			<line fill="none" stroke="#808285" stroke-width="0.8659" stroke-miterlimit="10" x1="309.55" y1="183.99" x2="324.225" y2="183.99"/>
		
			<line fill="none" stroke="#808285" stroke-width="0.8659" stroke-miterlimit="10" x1="309.55" y1="178.858" x2="324.225" y2="178.858"/>
		
			<line fill="none" stroke="#808285" stroke-width="0.8659" stroke-miterlimit="10" x1="309.55" y1="173.863" x2="324.225" y2="173.863"/>
	</g>
	<g>
		
			<line fill="none" stroke="#808285" stroke-width="0.8659" stroke-miterlimit="10" x1="149.674" y1="193.18" x2="149.674" y2="154.547"/>
		
			<line fill="none" stroke="#808285" stroke-width="0.8659" stroke-miterlimit="10" x1="164.851" y1="193.18" x2="164.851" y2="154.547"/>
		
			<line fill="none" stroke="#808285" stroke-width="0.8659" stroke-miterlimit="10" x1="149.594" y1="189.683" x2="164.269" y2="189.683"/>
		
			<line fill="none" stroke="#808285" stroke-width="0.8659" stroke-miterlimit="10" x1="149.594" y1="184.68" x2="164.269" y2="184.68"/>
		
			<line fill="none" stroke="#808285" stroke-width="0.8659" stroke-miterlimit="10" x1="149.594" y1="179.637" x2="164.269" y2="179.637"/>
		
			<line fill="none" stroke="#808285" stroke-width="0.8659" stroke-miterlimit="10" x1="149.594" y1="174.688" x2="164.269" y2="174.688"/>
		
			<line fill="none" stroke="#808285" stroke-width="0.8659" stroke-miterlimit="10" x1="149.594" y1="169.643" x2="164.269" y2="169.643"/>
		
			<line fill="none" stroke="#808285" stroke-width="0.8659" stroke-miterlimit="10" x1="149.594" y1="164.511" x2="164.269" y2="164.511"/>
		
			<line fill="none" stroke="#808285" stroke-width="0.8659" stroke-miterlimit="10" x1="149.594" y1="159.516" x2="164.269" y2="159.516"/>
	</g>
	<g>
		<g>
			<g>
				
					<line fill="none" stroke="#808285" stroke-width="0.8659" stroke-miterlimit="10" x1="343.466" y1="136.035" x2="343.466" y2="144.633"/>
				<polyline fill="none" stroke="#808285" stroke-width="0.8659" stroke-miterlimit="10" points="341.306,137.976 343.466,135.897 
					345.635,137.985 				"/>
			</g>
			<g>
				
					<line fill="none" stroke="#808285" stroke-width="0.8659" stroke-miterlimit="10" x1="348.354" y1="144.487" x2="348.354" y2="135.897"/>
				<polyline fill="none" stroke="#808285" stroke-width="0.8659" stroke-miterlimit="10" points="350.519,142.55 348.354,144.633 
					346.188,142.546 				"/>
			</g>
		</g>
		
			<rect x="339.596" y="133.224" fill="none" stroke="#808285" stroke-width="0.8659" stroke-miterlimit="10" width="12.621" height="14.077"/>
	</g>
	<g>
		<g>
			<g>
				
					<line fill="none" stroke="#808285" stroke-width="0.8659" stroke-miterlimit="10" x1="343.466" y1="166.724" x2="343.466" y2="175.321"/>
				<polyline fill="none" stroke="#808285" stroke-width="0.8659" stroke-miterlimit="10" points="341.306,168.665 343.466,166.586 
					345.635,168.673 				"/>
			</g>
			<g>
				
					<line fill="none" stroke="#808285" stroke-width="0.8659" stroke-miterlimit="10" x1="348.354" y1="175.176" x2="348.354" y2="166.586"/>
				<polyline fill="none" stroke="#808285" stroke-width="0.8659" stroke-miterlimit="10" points="350.519,173.238 348.354,175.321 
					346.188,173.234 				"/>
			</g>
		</g>
		
			<rect x="339.596" y="163.912" fill="none" stroke="#808285" stroke-width="0.8659" stroke-miterlimit="10" width="12.621" height="14.077"/>
	</g>
	<g>
		<g>
			<g>
				
					<line fill="none" stroke="#808285" stroke-width="0.8659" stroke-miterlimit="10" x1="343.466" y1="197.341" x2="343.466" y2="205.94"/>
				<polyline fill="none" stroke="#808285" stroke-width="0.8659" stroke-miterlimit="10" points="341.306,199.282 343.466,197.205 
					345.635,199.293 				"/>
			</g>
			<g>
				
					<line fill="none" stroke="#808285" stroke-width="0.8659" stroke-miterlimit="10" x1="348.354" y1="205.797" x2="348.354" y2="197.205"/>
				<polyline fill="none" stroke="#808285" stroke-width="0.8659" stroke-miterlimit="10" points="350.519,203.857 348.354,205.94 
					346.188,203.854 				"/>
			</g>
		</g>
		
			<rect x="339.596" y="194.53" fill="none" stroke="#808285" stroke-width="0.8659" stroke-miterlimit="10" width="12.621" height="14.081"/>
	</g>
	<g>
		<g>
			<g>
				
					<line fill="none" stroke="#808285" stroke-width="0.8659" stroke-miterlimit="10" x1="195.467" y1="180.821" x2="195.467" y2="189.421"/>
				<polyline fill="none" stroke="#808285" stroke-width="0.8659" stroke-miterlimit="10" points="193.303,182.764 195.467,180.686 
					197.635,182.773 				"/>
			</g>
			<g>
				
					<line fill="none" stroke="#808285" stroke-width="0.8659" stroke-miterlimit="10" x1="200.356" y1="189.277" x2="200.356" y2="180.686"/>
				<polyline fill="none" stroke="#808285" stroke-width="0.8659" stroke-miterlimit="10" points="202.521,187.337 200.356,189.421 
					198.186,187.336 				"/>
			</g>
		</g>
		
			<rect x="191.597" y="178.01" fill="none" stroke="#808285" stroke-width="0.8659" stroke-miterlimit="10" width="12.619" height="14.081"/>
	</g>
	<g>
		<g>
			<g>
				
					<line fill="none" stroke="#808285" stroke-width="0.8659" stroke-miterlimit="10" x1="197.762" y1="154.318" x2="197.762" y2="162.918"/>
				<polyline fill="none" stroke="#808285" stroke-width="0.8659" stroke-miterlimit="10" points="195.597,156.262 197.762,154.181 
					199.926,156.268 				"/>
			</g>
			<g>
				
					<line fill="none" stroke="#808285" stroke-width="0.8659" stroke-miterlimit="10" x1="202.647" y1="162.772" x2="202.647" y2="154.181"/>
				<polyline fill="none" stroke="#808285" stroke-width="0.8659" stroke-miterlimit="10" points="204.812,160.835 202.647,162.918 
					200.479,160.831 				"/>
			</g>
		</g>
		
			<rect x="193.892" y="151.507" fill="none" stroke="#808285" stroke-width="0.8659" stroke-miterlimit="10" width="12.616" height="14.079"/>
	</g>
	<g>
		<g>
			<g>
				
					<line fill="none" stroke="#808285" stroke-width="0.8659" stroke-miterlimit="10" x1="404.816" y1="136.035" x2="404.816" y2="144.633"/>
				<polyline fill="none" stroke="#808285" stroke-width="0.8659" stroke-miterlimit="10" points="402.653,137.976 404.816,135.897 
					406.983,137.985 				"/>
			</g>
			<g>
				
					<line fill="none" stroke="#808285" stroke-width="0.8659" stroke-miterlimit="10" x1="409.703" y1="144.487" x2="409.703" y2="135.897"/>
				<polyline fill="none" stroke="#808285" stroke-width="0.8659" stroke-miterlimit="10" points="411.867,142.55 409.703,144.633 
					407.535,142.546 				"/>
			</g>
		</g>
		
			<rect x="400.947" y="133.224" fill="none" stroke="#808285" stroke-width="0.8659" stroke-miterlimit="10" width="12.618" height="14.077"/>
	</g>
	<g>
		<g>
			<g>
				
					<line fill="none" stroke="#808285" stroke-width="0.8659" stroke-miterlimit="10" x1="404.816" y1="166.724" x2="404.816" y2="175.321"/>
				<polyline fill="none" stroke="#808285" stroke-width="0.8659" stroke-miterlimit="10" points="402.653,168.665 404.816,166.586 
					406.983,168.673 				"/>
			</g>
			<g>
				
					<line fill="none" stroke="#808285" stroke-width="0.8659" stroke-miterlimit="10" x1="409.703" y1="175.176" x2="409.703" y2="166.586"/>
				<polyline fill="none" stroke="#808285" stroke-width="0.8659" stroke-miterlimit="10" points="411.867,173.238 409.703,175.321 
					407.535,173.234 				"/>
			</g>
		</g>
		
			<rect x="400.947" y="163.912" fill="none" stroke="#808285" stroke-width="0.8659" stroke-miterlimit="10" width="12.618" height="14.077"/>
	</g>
	<g>
		<g>
			<g>
				
					<line fill="none" stroke="#808285" stroke-width="0.8659" stroke-miterlimit="10" x1="404.816" y1="197.341" x2="404.816" y2="205.94"/>
				<polyline fill="none" stroke="#808285" stroke-width="0.8659" stroke-miterlimit="10" points="402.653,199.282 404.816,197.205 
					406.983,199.293 				"/>
			</g>
			<g>
				
					<line fill="none" stroke="#808285" stroke-width="0.8659" stroke-miterlimit="10" x1="409.703" y1="205.797" x2="409.703" y2="197.205"/>
				<polyline fill="none" stroke="#808285" stroke-width="0.8659" stroke-miterlimit="10" points="411.867,203.857 409.703,205.94 
					407.535,203.854 				"/>
			</g>
		</g>
		
			<rect x="400.947" y="194.53" fill="none" stroke="#808285" stroke-width="0.8659" stroke-miterlimit="10" width="12.618" height="14.081"/>
	</g>
	<rect x="392.991" y="185.86" fill="none" width="28.531" height="31.414"/>
	<rect x="393.959" y="156.681" fill="none" width="26.709" height="27.945"/>
	<text transform="matrix(1 0 0 1 102.0253 64.7456)" font-family="'FiraSans-Book'" font-size="12.9884" letter-spacing="1">OFFICE 1</text>
	<text transform="matrix(1 0 0 1 262.2167 64.7456)" font-family="'FiraSans-Book'" font-size="12.9884" letter-spacing="1">OFFICE 2</text>
	<text transform="matrix(1 0 0 1 438.8593 64.7456)" font-family="'FiraSans-Book'" font-size="12.9884" letter-spacing="1">OFFICE 3</text>
	<text transform="matrix(1 0 0 1 89.0371 283.8164)" font-family="'FiraSans-Book'" font-size="12.9884" letter-spacing="1">OFFICE 4</text>
	<text transform="matrix(1 0 0 1 262.2167 283.8164)" font-family="'FiraSans-Book'" font-size="12.9884" letter-spacing="1">OFFICE 5</text>
	<text transform="matrix(1 0 0 1 401.6249 283.8164)" font-family="'FiraSans-Book'" font-size="12.9884" letter-spacing="1">OFFICE 6</text>
</g>
</svg>
