<?xml version="1.0" encoding="utf-8"?>
<!-- Generator: Adobe Illustrator 17.0.0, SVG Export Plug-In . SVG Version: 6.00 Build 0)  -->
<!DOCTYPE svg PUBLIC "-//W3C//DTD SVG 1.1//EN" "http://www.w3.org/Graphics/SVG/1.1/DTD/svg11.dtd">
<svg version="1.1" id="Layer_1" xmlns="http://www.w3.org/2000/svg" xmlns:xlink="http://www.w3.org/1999/xlink" x="0px" y="0px"
	 width="158.782px" height="15.222px" viewBox="0 0 158.782 15.222" enable-background="new 0 0 158.782 15.222"
	 xml:space="preserve">
<g>
	<path fill="#FFFFFF" d="M70.254,8.371c0.423,0,0.739,0.438,0.739,0.438V6.491c0,0-0.316,0.459-0.739,0.459l-5.646-0.006
		l-0.004-4.085l6.962-0.013c0.415,0,0.705,0.475,0.705,0.475L72.268,0.92c0,0-0.286,0.489-0.701,0.489h-8.995
		c0,0,0.397,0.321,0.397,0.736l-0.004,11.184c0,0.405-0.401,0.733-0.401,0.733h9.003c0.415,0,0.713,0.468,0.713,0.468v-2.374
		c0,0-0.297,0.463-0.713,0.463l-6.962,0.005V8.366L70.254,8.371z"/>
	<path fill="#FFFFFF" d="M155.533,8.371c0.428,0,0.74,0.44,0.74,0.44V6.494c0,0-0.312,0.457-0.74,0.457l-5.644-0.004l-0.003-4.087
		l6.962-0.013c0.415,0,0.705,0.476,0.705,0.476L157.55,0.92c0,0-0.287,0.489-0.702,0.489h-8.996c0,0,0.395,0.33,0.395,0.736v11.178
		c0,0.414-0.401,0.742-0.401,0.742l9.002-0.007c0.415,0,0.715,0.472,0.715,0.472l-0.002-2.371c0,0-0.298,0.459-0.713,0.459
		l-6.962,0.005V8.366L155.533,8.371z"/>
	<path fill="#FFFFFF" d="M1.487,1.051l9.664,9.46l-0.003-8.183c0-0.608-0.479-0.937-0.479-0.937h2.641c0,0-0.457,0.337-0.457,0.944
		l-0.018,12.067L3.16,4.878v8.451c0,0.405,0.479,0.727,0.479,0.727H1.027c0,0,0.464-0.321,0.464-0.727L1.487,1.051z"/>
	<path fill="#FFFFFF" d="M22.88,1.397c2.486-0.456,5.287,0.184,7.027,2.102c2.217,2.357,2.173,6.437-0.112,8.745
		c-2.723,2.768-7.653,2.83-10.505,0.233c-2.1-1.911-2.565-5.263-1.233-7.738C19.011,2.931,20.896,1.738,22.88,1.397 M22.857,2.952
		c-1.576,0.35-3.004,1.464-3.552,3.008c-0.609,1.751-0.338,3.903,0.988,5.279c1.882,1.906,5.124,2.09,7.367,0.736
		c2.717-1.604,2.951-5.963,0.539-7.943C26.742,2.809,24.679,2.546,22.857,2.952"/>
	<path fill="#FFFFFF" d="M107.101,1.312c2.489-0.456,5.282,0.187,7.021,2.101c2.222,2.366,2.172,6.442-0.099,8.747
		c-2.73,2.766-7.664,2.832-10.509,0.225c-2.104-1.903-2.57-5.255-1.234-7.724C103.229,2.847,105.114,1.661,107.101,1.312
		 M107.078,2.873c-1.513,0.337-2.904,1.368-3.483,2.841c-0.75,1.884-0.408,4.286,1.147,5.677c1.97,1.706,5.116,1.819,7.286,0.412
		c2.583-1.674,2.752-5.911,0.393-7.851C110.962,2.732,108.899,2.471,107.078,2.873"/>
	<path fill="#FFFFFF" d="M137.192,1.597c1.824-0.691,4.016-0.594,5.649,0.522c0.806,0.514,1.195,1.431,1.881,2.055
		c-0.763,0.204-1.518,0.457-2.244,0.761c0.029-0.378,0.238-0.859-0.132-1.137c-1.048-1.091-2.734-1.274-4.14-0.938
		c-0.803,0.219-1.726,0.714-1.872,1.627c-0.165,0.699,0.476,1.212,1.043,1.452c1.937,0.815,4.2,0.744,5.952,1.999
		c1.344,0.913,1.556,2.928,0.67,4.215c-0.835,1.248-2.326,1.869-3.766,2.066c-1.869,0.221-3.985-0.18-5.281-1.646
		c-0.48-0.526-0.698-1.332-1.445-1.569c0.736-0.231,1.471-0.493,2.204-0.751c0.06,0.577,0.211,1.194,0.713,1.557
		c1.157,0.993,2.83,1.112,4.265,0.783c1-0.241,2.077-0.946,2.148-2.062c0.098-0.689-0.408-1.277-0.982-1.554
		c-1.903-0.971-4.199-0.801-6.013-1.983c-0.853-0.519-1.35-1.551-1.191-2.548C134.799,3.062,135.962,2.059,137.192,1.597"/>
	<path fill="#FFFFFF" d="M34.858,1.393c0,0,4.236-0.003,6.354,0.005c0.961,0.019,1.982,0.15,2.779,0.73
		c1.28,0.886,1.78,2.821,0.915,4.161c-0.309,0.529-0.857,0.833-1.361,1.139c0.596,0.323,1.235,0.661,1.632,1.239
		c1.007,1.407,0.56,3.552-0.831,4.544c-0.901,0.656-2.051,0.858-3.145,0.853c-2.111,0-6.351-0.007-6.351-0.007
		s0.482-0.321,0.482-0.727L35.319,2.043C35.319,1.633,34.858,1.393,34.858,1.393 M36.976,2.859l0.007,3.962l3.749,0.009
		c0.73-0.022,1.501-0.068,2.146-0.465c0.926-0.571,1.04-2.005,0.363-2.813c-0.601-0.568-1.48-0.65-2.274-0.693H36.976z M36.983,8.29
		l-0.002,4.314l3.998,0.008c0.815-0.019,1.706-0.1,2.377-0.626c0.879-0.716,0.946-2.244,0.086-3.011
		c-0.671-0.583-1.61-0.678-2.471-0.692L36.983,8.29z"/>
	<path fill="#FFFFFF" d="M49.93,1.39h2.551c0,0-0.459,0.324-0.459,0.734l0.004,10.5l6.933-0.005c0.427,0,0.738-0.623,0.738-0.623
		L59.7,14.53c0,0-0.315-0.468-0.735-0.468h-8.976c0,0,0.393-0.328,0.393-0.733c0-2.895,0.004-11.205,0.004-11.205
		C50.386,1.714,49.93,1.39,49.93,1.39"/>
	<path fill="#FFFFFF" d="M86.164,1.397h2.617c0,0-0.496,0.316-0.496,0.742l-0.007,3.656l7.49,2.434l0.003-6.09
		c0-0.425-0.464-0.742-0.464-0.742h2.605c0,0-0.471,0.316-0.471,0.742L97.45,13.3c0,0.434,0.468,0.757,0.468,0.757h-2.614
		c0,0,0.472-0.323,0.472-0.734l-0.006-3.669l-7.49-2.431l0.022,6.1c0,0.405,0.469,0.734,0.469,0.734h-2.613
		c0,0,0.479-0.323,0.479-0.734L86.625,2.145C86.625,1.704,86.164,1.397,86.164,1.397"/>
	<path fill="#FFFFFF" d="M119.884,2.124l-0.004,7.017c0.015,1.091,0.374,2.176,1.042,3.042c1.592,2.134,4.778,2.675,7.104,1.478
		c1.61-0.797,2.719-2.494,2.79-4.289l0.014-7.226c0-0.431,0.441-0.748,0.441-0.748h-2.597c0,0,0.469,0.316,0.469,0.732l0.007,6.308
		c0.014,0.973-0.121,2.013-0.705,2.83c-1.354,1.942-4.608,1.999-6.061,0.144c-0.63-0.761-0.819-1.78-0.824-2.743l-0.011-6.556
		c0-0.4,0.464-0.724,0.464-0.724h-2.575C119.437,1.39,119.884,1.725,119.884,2.124"/>
</g>
</svg>
