<?xml version="1.0" encoding="utf-8"?>
<!-- Generator: Adobe Illustrator 17.0.0, SVG Export Plug-In . SVG Version: 6.00 Build 0)  -->
<!DOCTYPE svg PUBLIC "-//W3C//DTD SVG 1.1//EN" "http://www.w3.org/Graphics/SVG/1.1/DTD/svg11.dtd">
<svg version="1.1" xmlns="http://www.w3.org/2000/svg" xmlns:xlink="http://www.w3.org/1999/xlink" x="0px" y="0px"
	 width="81.262px" height="63px" viewBox="0 0 81.262 63" enable-background="new 0 0 81.262 63" xml:space="preserve">
<g id="Layer_1" display="none">
</g>
<g id="Layer_3" display="none">
	<rect x="-1.634" y="-0.366" display="inline" fill="#646263" width="84.101" height="64.19"/>
</g>
<g id="Layer_2">
	<g>
		<g>
			<g>
				<path fill="#1B1B1B" d="M-587.236-359.621v-20.219c0-6.069,2.025-6.069,2.025-6.069h-8.09c0,0,2.024,0,2.024,6.069v16.571
					l-6.069-3.788v-20.876c0-6.065,2.019-6.065,2.019-6.065h-8.094c0,0,2.025,0,2.025,6.065v18.345l-8.092-5.055v-13.29
					c0-6.065,2.023-6.065,2.023-6.065h-8.092c0,0,2.026,0,2.026,6.065v10.765l-6.046-3.779c0.229-4.959,1.998-4.962,1.998-4.962
					h-8.09c0,0,2.022,0,2.022,6.069l0,0v20.219c0,6.068-2.022,6.068-2.022,6.068h8.09c0,0-2.023,0-2.023-6.068v-16.573l6.071,3.792
					v20.871c0,6.067-2.026,6.071-2.026,6.071h8.092c0,0-2.023-0.004-2.023-6.068v-18.348l8.092,5.06v13.284
					c0,6.067-2.025,6.071-2.025,6.071h8.094c0,0-2.019-0.004-2.019-6.068v-10.761l6.044,3.777c-0.229,4.956-1.999,4.959-1.999,4.959
					h8.09C-585.211-353.552-587.236-353.552-587.236-359.621"/>
				<path fill="#1B1B1B" d="M-610.248-333.458c0.223,0,0.388,0.23,0.388,0.23v-1.221c0,0-0.165,0.242-0.388,0.242l-2.973-0.004
					l-0.002-2.15l3.665-0.007c0.22,0,0.371,0.25,0.371,0.25l-0.001-1.265c0,0-0.15,0.258-0.37,0.258h-4.735
					c0,0,0.208,0.169,0.208,0.388l-0.001,5.889c0,0.213-0.212,0.386-0.212,0.386h4.74c0.22,0,0.376,0.247,0.376,0.247v-1.25
					c0,0-0.156,0.243-0.376,0.243l-3.665,0.003v-2.242L-610.248-333.458z"/>
				<path fill="#1B1B1B" d="M-565.348-333.458c0.226,0,0.391,0.231,0.391,0.231v-1.221c0,0-0.165,0.241-0.391,0.241l-2.971-0.003
					l-0.001-2.151l3.665-0.007c0.218,0,0.372,0.251,0.372,0.251l-0.002-1.266c0,0-0.152,0.258-0.37,0.258h-4.737
					c0,0,0.209,0.173,0.209,0.388v5.886c0,0.218-0.211,0.391-0.211,0.391l4.739-0.004c0.218,0,0.377,0.249,0.377,0.249l-0.001-1.249
					c0,0-0.158,0.242-0.376,0.242l-3.665,0.003v-2.242L-565.348-333.458z"/>
				<path fill="#1B1B1B" d="M-646.455-337.313l5.087,4.982l-0.003-4.31c0-0.32-0.25-0.493-0.25-0.493h1.391
					c0,0-0.24,0.178-0.24,0.497l-0.01,6.354l-5.094-5.016v4.45c0,0.213,0.252,0.382,0.252,0.382h-1.375c0,0,0.244-0.169,0.244-0.382
					L-646.455-337.313z"/>
				<path fill="#1B1B1B" d="M-635.192-337.13c1.307-0.24,2.783,0.097,3.699,1.106c1.168,1.24,1.144,3.389-0.059,4.604
					c-1.434,1.457-4.029,1.489-5.531,0.123c-1.105-1.007-1.352-2.772-0.649-4.074C-637.23-336.324-636.237-336.952-635.192-337.13
					 M-635.203-336.312c-0.832,0.184-1.582,0.771-1.872,1.584c-0.319,0.921-0.177,2.055,0.52,2.779
					c0.992,1.004,2.697,1.101,3.879,0.388c1.431-0.845,1.554-3.141,0.284-4.183C-633.158-336.387-634.244-336.526-635.203-336.312"
					/>
				<path fill="#1B1B1B" d="M-590.849-337.175c1.31-0.239,2.782,0.099,3.697,1.105c1.171,1.246,1.144,3.393-0.052,4.605
					c-1.438,1.457-4.034,1.492-5.533,0.119c-1.107-1.002-1.353-2.768-0.649-4.067C-592.887-336.368-591.895-336.992-590.849-337.175
					 M-590.86-336.354c-0.796,0.178-1.529,0.72-1.833,1.497c-0.394,0.99-0.215,2.256,0.604,2.987
					c1.036,0.898,2.692,0.958,3.836,0.218c1.359-0.882,1.449-3.112,0.207-4.134C-588.816-336.427-589.901-336.565-590.86-336.354"/>
				<path fill="#1B1B1B" d="M-575.005-337.026c0.961-0.363,2.116-0.312,2.975,0.275c0.424,0.27,0.628,0.753,0.99,1.082
					c-0.404,0.106-0.801,0.24-1.182,0.4c0.016-0.199,0.124-0.452-0.07-0.599c-0.551-0.574-1.44-0.671-2.18-0.494
					c-0.422,0.115-0.909,0.376-0.986,0.857c-0.087,0.368,0.251,0.639,0.551,0.765c1.02,0.43,2.211,0.392,3.133,1.053
					c0.708,0.48,0.82,1.541,0.353,2.219c-0.439,0.657-1.224,0.984-1.982,1.088c-0.983,0.116-2.097-0.095-2.78-0.867
					c-0.252-0.277-0.367-0.701-0.762-0.826c0.389-0.122,0.774-0.26,1.162-0.396c0.031,0.304,0.111,0.63,0.375,0.82
					c0.607,0.522,1.49,0.585,2.245,0.412c0.526-0.128,1.093-0.499,1.13-1.086c0.053-0.363-0.213-0.673-0.516-0.817
					c-1.002-0.512-2.212-0.423-3.166-1.045c-0.45-0.273-0.711-0.816-0.627-1.342C-576.265-336.254-575.653-336.783-575.005-337.026"
					/>
				<path fill="#1B1B1B" d="M-628.885-337.133c0,0,2.23-0.002,3.346,0.003c0.506,0.01,1.042,0.079,1.463,0.384
					c0.673,0.467,0.938,1.485,0.482,2.19c-0.163,0.279-0.451,0.439-0.717,0.601c0.315,0.17,0.651,0.348,0.859,0.652
					c0.53,0.74,0.296,1.871-0.437,2.392c-0.476,0.347-1.08,0.452-1.656,0.449c-1.112,0-3.344-0.004-3.344-0.004
					s0.254-0.169,0.254-0.382l-0.008-5.942C-628.643-337.006-628.885-337.133-628.885-337.133 M-627.77-336.361l0.003,2.086
					l1.974,0.005c0.384-0.012,0.791-0.036,1.13-0.244c0.487-0.301,0.548-1.057,0.192-1.481c-0.316-0.3-0.779-0.343-1.198-0.365
					H-627.77z M-627.767-333.501l-0.001,2.271l2.106,0.004c0.43-0.01,0.897-0.053,1.251-0.329c0.463-0.377,0.499-1.182,0.046-1.585
					c-0.354-0.308-0.849-0.357-1.301-0.365L-627.767-333.501z"/>
				<path fill="#1B1B1B" d="M-620.949-337.135h1.343c0,0-0.242,0.171-0.242,0.388l0.002,5.528l3.651-0.003
					c0.225,0,0.389-0.328,0.389-0.328l0.001,1.335c0,0-0.165-0.247-0.386-0.247h-4.729c0,0,0.209-0.173,0.209-0.386
					c0-1.524,0.002-5.899,0.002-5.899C-620.709-336.964-620.949-337.135-620.949-337.135"/>
				<path fill="#1B1B1B" d="M-601.871-337.13h1.377c0,0-0.261,0.166-0.261,0.391l-0.003,1.925l3.943,1.281l0.002-3.206
					c0-0.225-0.244-0.391-0.244-0.391h1.371c0,0-0.248,0.166-0.248,0.391l0.004,5.876c0,0.229,0.246,0.398,0.246,0.398h-1.375
					c0,0,0.248-0.17,0.248-0.386l-0.004-1.933l-3.943-1.279l0.012,3.212c0,0.213,0.246,0.386,0.246,0.386h-1.375
					c0,0,0.252-0.17,0.252-0.386l-0.006-5.886C-601.629-336.969-601.871-337.13-601.871-337.13"/>
				<path fill="#1B1B1B" d="M-584.119-336.748v3.693c0.008,0.575,0.196,1.146,0.548,1.602c0.839,1.124,2.517,1.408,3.74,0.778
					c0.849-0.42,1.433-1.314,1.469-2.258l0.008-3.805c0-0.228,0.233-0.394,0.233-0.394h-1.368c0,0,0.247,0.166,0.247,0.386
					l0.004,3.321c0.007,0.512-0.064,1.06-0.372,1.489c-0.712,1.022-2.424,1.053-3.19,0.077c-0.332-0.401-0.432-0.938-0.434-1.445
					l-0.005-3.451c0-0.211,0.244-0.382,0.244-0.382h-1.357C-584.354-337.135-584.119-336.958-584.119-336.748"/>
			</g>
		</g>
		<g>
			<rect x="707.18" y="-392.386" fill-rule="evenodd" clip-rule="evenodd" fill="#1B1B1B" width="9.5" height="9.5"/>
			<rect x="719.848" y="-392.386" fill-rule="evenodd" clip-rule="evenodd" fill="#1B1B1B" width="9.5" height="9.5"/>
			<rect x="707.18" y="-379.552" fill-rule="evenodd" clip-rule="evenodd" fill="#1B1B1B" width="9.5" height="9.5"/>
			<rect x="719.848" y="-379.552" fill-rule="evenodd" clip-rule="evenodd" fill="#1B1B1B" width="9.5" height="9.5"/>
		</g>
		<text transform="matrix(1 0 0 1 -645.1982 454.9849)"><tspan x="0" y="0" fill="#F2F2F2" font-family="'OpenSans-Semibold'" font-size="11.3386">ENQUIRIES</tspan><tspan x="63.361" y="0" fill="#F2F2F2" font-family="'OpenSans-Semibold'" font-size="11.3386" letter-spacing="11">	</tspan><tspan x="77.95" y="0" fill="#F2F2F2" font-family="'OpenSans-Semibold'" font-size="11.3386" letter-spacing="22">	</tspan><tspan x="103.328" y="0" fill="#F2F2F2" font-family="'OpenSans-Semibold'" font-size="11.3386">FACEBOOK</tspan><tspan x="166.583" y="0" fill="#F2F2F2" font-family="'OpenSans-Semibold'" font-size="11.3386" letter-spacing="11">	</tspan><tspan x="180.823" y="0" fill="#F2F2F2" font-family="'OpenSans-Semibold'" font-size="11.3386" letter-spacing="22">	</tspan><tspan x="206.655" y="0" fill="#F2F2F2" font-family="'OpenSans-Semibold'" font-size="11.3386">TWITTER</tspan><tspan x="256.839" y="0" fill="#F2F2F2" font-family="'OpenSans-Semibold'" font-size="11.3386" letter-spacing="-1">	</tspan><tspan x="258.318" y="0" fill="#F2F2F2" font-family="'OpenSans-Semibold'" font-size="11.3386" letter-spacing="22">	</tspan><tspan x="284.15" y="0" fill="#F2F2F2" font-family="'OpenSans-Semibold'" font-size="11.3386">INSTAGRAM</tspan></text>
	</g>
	<g>
		<g>
			<path fill="#1B1B1B" d="M57.449,33.891V14.445c0-5.837,1.947-5.837,1.947-5.837h-7.78c0,0,1.946,0,1.946,5.837v15.937
				l-5.837-3.643V6.662c0-5.833,1.942-5.833,1.942-5.833h-7.784c0,0,1.948,0,1.948,5.833v17.643l-7.782-4.861V6.662
				c0-5.833,1.946-5.833,1.946-5.833h-7.782c0,0,1.949,0,1.949,5.833v10.353l-5.815-3.635c0.22-4.769,1.922-4.772,1.922-4.772h-7.78
				c0,0,1.945,0,1.945,5.837l0,0v19.445c0,5.836-1.945,5.836-1.945,5.836h7.78c0,0-1.946,0-1.946-5.836V17.952l5.839,3.647v20.073
				c0,5.835-1.949,5.839-1.949,5.839h7.782c0,0-1.946-0.004-1.946-5.836V24.028l7.782,4.867v12.776c0,5.835-1.948,5.839-1.948,5.839
				h7.784c0,0-1.942-0.004-1.942-5.836V31.325l5.813,3.633c-0.221,4.766-1.923,4.769-1.923,4.769h7.78
				C59.396,39.727,57.449,39.727,57.449,33.891"/>
			<path fill="#1B1B1B" d="M35.317,59.052c0.214,0,0.373,0.222,0.373,0.222V58.1c0,0-0.159,0.233-0.373,0.233l-2.859-0.004
				l-0.002-2.068l3.525-0.007c0.211,0,0.357,0.24,0.357,0.24l-0.001-1.216c0,0-0.145,0.248-0.356,0.248h-4.554
				c0,0,0.2,0.162,0.2,0.373l-0.001,5.663c0,0.205-0.204,0.371-0.204,0.371h4.559c0.211,0,0.362,0.238,0.362,0.238v-1.202
				c0,0-0.15,0.234-0.362,0.234l-3.525,0.003v-2.156L35.317,59.052z"/>
			<path fill="#1B1B1B" d="M78.5,59.052c0.217,0,0.376,0.223,0.376,0.223v-1.174c0,0-0.159,0.232-0.376,0.232l-2.857-0.003
				l-0.001-2.069l3.525-0.007c0.21,0,0.358,0.241,0.358,0.241l-0.002-1.217c0,0-0.146,0.248-0.356,0.248H74.61
				c0,0,0.201,0.166,0.201,0.373v5.661c0,0.209-0.203,0.376-0.203,0.376l4.558-0.004c0.21,0,0.363,0.239,0.363,0.239l-0.001-1.201
				c0,0-0.152,0.233-0.362,0.233l-3.525,0.003v-2.156L78.5,59.052z"/>
			<path fill="#1B1B1B" d="M0.495,55.345l4.892,4.792l-0.003-4.145c0-0.308-0.24-0.474-0.24-0.474h1.337
				c0,0-0.231,0.171-0.231,0.478l-0.009,6.111l-4.899-4.824v4.28c0,0.205,0.242,0.367,0.242,0.367H0.262
				c0,0,0.235-0.163,0.235-0.367L0.495,55.345z"/>
			<path fill="#1B1B1B" d="M11.328,55.521c1.257-0.231,2.677,0.093,3.558,1.064c1.123,1.193,1.1,3.259-0.056,4.428
				c-1.379,1.401-3.875,1.432-5.32,0.118c-1.063-0.968-1.3-2.665-0.625-3.918C9.368,56.296,10.323,55.692,11.328,55.521
				 M11.317,56.308c-0.8,0.176-1.522,0.741-1.8,1.523c-0.307,0.886-0.17,1.976,0.501,2.673c0.954,0.965,2.594,1.058,3.731,0.373
				c1.376-0.812,1.494-3.02,0.273-4.023C13.283,56.235,12.239,56.102,11.317,56.308"/>
			<path fill="#1B1B1B" d="M53.974,55.477c1.26-0.23,2.676,0.095,3.555,1.063c1.127,1.198,1.1,3.263-0.05,4.429
				c-1.383,1.401-3.88,1.435-5.322,0.115c-1.065-0.964-1.302-2.662-0.624-3.912C52.014,56.254,52.969,55.654,53.974,55.477
				 M53.964,56.267c-0.766,0.171-1.47,0.692-1.763,1.44c-0.379,0.952-0.207,2.17,0.581,2.873c0.996,0.864,2.589,0.921,3.689,0.209
				c1.307-0.848,1.394-2.993,0.199-3.976C55.93,56.197,54.886,56.064,53.964,56.267"/>
			<path fill="#1B1B1B" d="M69.212,55.621c0.924-0.349,2.035-0.301,2.862,0.265c0.408,0.26,0.604,0.724,0.953,1.041
				c-0.388,0.102-0.77,0.231-1.136,0.385c0.015-0.192,0.119-0.435-0.068-0.576c-0.53-0.552-1.384-0.645-2.096-0.475
				c-0.406,0.111-0.874,0.362-0.949,0.824c-0.084,0.354,0.241,0.614,0.53,0.735c0.98,0.413,2.126,0.377,3.013,1.013
				c0.681,0.462,0.789,1.482,0.339,2.134c-0.422,0.632-1.177,0.947-1.907,1.046c-0.946,0.112-2.016-0.091-2.674-0.834
				c-0.242-0.267-0.353-0.674-0.733-0.795c0.374-0.117,0.745-0.25,1.118-0.38c0.03,0.292,0.107,0.606,0.361,0.789
				c0.584,0.503,1.433,0.563,2.159,0.396c0.506-0.123,1.051-0.48,1.087-1.044c0.051-0.349-0.205-0.647-0.496-0.786
				c-0.964-0.492-2.127-0.407-3.045-1.005c-0.433-0.263-0.684-0.785-0.603-1.29C68.001,56.363,68.589,55.855,69.212,55.621"/>
			<path fill="#1B1B1B" d="M17.393,55.518c0,0,2.145-0.002,3.218,0.003c0.487,0.009,1.002,0.076,1.407,0.369
				c0.648,0.449,0.902,1.428,0.463,2.107c-0.157,0.269-0.434,0.423-0.689,0.578c0.303,0.163,0.626,0.334,0.827,0.627
				c0.51,0.712,0.285,1.8-0.42,2.3c-0.458,0.333-1.039,0.435-1.593,0.432c-1.07,0-3.216-0.004-3.216-0.004s0.244-0.163,0.244-0.367
				l-0.008-5.715C17.626,55.64,17.393,55.518,17.393,55.518 M18.466,56.261l0.003,2.006l1.898,0.005
				c0.369-0.011,0.761-0.035,1.087-0.235c0.469-0.289,0.527-1.016,0.185-1.425c-0.304-0.288-0.749-0.33-1.152-0.351H18.466z
				 M18.469,59.011l-0.001,2.185l2.025,0.004c0.413-0.009,0.863-0.051,1.203-0.317c0.445-0.363,0.48-1.136,0.044-1.524
				c-0.34-0.296-0.816-0.344-1.251-0.351L18.469,59.011z"/>
			<path fill="#1B1B1B" d="M25.025,55.516h1.291c0,0-0.233,0.164-0.233,0.373l0.002,5.317l3.512-0.003
				c0.216,0,0.374-0.316,0.374-0.316l0.001,1.284c0,0-0.159-0.238-0.371-0.238h-4.548c0,0,0.201-0.166,0.201-0.371
				c0-1.466,0.002-5.674,0.002-5.674C25.256,55.68,25.025,55.516,25.025,55.516"/>
			<path fill="#1B1B1B" d="M43.374,55.521h1.324c0,0-0.251,0.16-0.251,0.376l-0.003,1.851l3.792,1.232l0.002-3.083
				c0-0.216-0.235-0.376-0.235-0.376h1.319c0,0-0.239,0.16-0.239,0.376l0.004,5.651c0,0.22,0.237,0.383,0.237,0.383h-1.322
				c0,0,0.239-0.163,0.239-0.371l-0.004-1.859l-3.792-1.23l0.011,3.089c0,0.205,0.237,0.371,0.237,0.371H43.37
				c0,0,0.242-0.163,0.242-0.371l-0.006-5.661C43.607,55.676,43.374,55.521,43.374,55.521"/>
			<path fill="#1B1B1B" d="M60.447,55.889v3.552c0.007,0.553,0.189,1.102,0.527,1.54c0.807,1.081,2.421,1.354,3.597,0.749
				c0.816-0.404,1.378-1.263,1.412-2.172l0.008-3.659c0-0.219,0.224-0.379,0.224-0.379h-1.316c0,0,0.238,0.16,0.238,0.371
				l0.004,3.194c0.007,0.492-0.062,1.019-0.358,1.432c-0.684,0.983-2.332,1.012-3.068,0.074c-0.319-0.386-0.415-0.903-0.417-1.39
				l-0.005-3.319c0-0.203,0.235-0.367,0.235-0.367h-1.305C60.221,55.516,60.447,55.686,60.447,55.889"/>
		</g>
	</g>
	<g>
		<g>
			<path fill="#1B1B1B" d="M58.182,33.891V14.445c0-5.837,1.947-5.837,1.947-5.837h-7.78c0,0,1.946,0,1.946,5.837v15.937
				l-5.837-3.643V6.662c0-5.833,1.942-5.833,1.942-5.833h-7.784c0,0,1.948,0,1.948,5.833v17.643l-7.782-4.861V6.662
				c0-5.833,1.946-5.833,1.946-5.833h-7.782c0,0,1.949,0,1.949,5.833v10.353L27.08,13.38c0.22-4.769,1.922-4.772,1.922-4.772h-7.78
				c0,0,1.945,0,1.945,5.837l0,0v19.445c0,5.836-1.945,5.836-1.945,5.836h7.78c0,0-1.946,0-1.946-5.836V17.952l5.839,3.647v20.073
				c0,5.835-1.949,5.839-1.949,5.839h7.782c0,0-1.946-0.004-1.946-5.836V24.028l7.782,4.867v12.776c0,5.835-1.948,5.839-1.948,5.839
				h7.784c0,0-1.942-0.004-1.942-5.836V31.325l5.813,3.633c-0.221,4.766-1.923,4.769-1.923,4.769h7.78
				C60.129,39.727,58.182,39.727,58.182,33.891"/>
			<path fill="#1B1B1B" d="M36.05,59.052c0.214,0,0.373,0.222,0.373,0.222V58.1c0,0-0.159,0.233-0.373,0.233l-2.859-0.004
				l-0.002-2.068l3.525-0.007c0.211,0,0.357,0.24,0.357,0.24l-0.001-1.216c0,0-0.145,0.248-0.356,0.248H32.16
				c0,0,0.2,0.162,0.2,0.373l-0.001,5.663c0,0.205-0.204,0.371-0.204,0.371h4.559c0.211,0,0.362,0.238,0.362,0.238v-1.202
				c0,0-0.15,0.234-0.362,0.234l-3.525,0.003v-2.156L36.05,59.052z"/>
			<path fill="#1B1B1B" d="M79.232,59.052c0.217,0,0.376,0.223,0.376,0.223v-1.174c0,0-0.159,0.232-0.376,0.232l-2.857-0.003
				l-0.001-2.069l3.525-0.007c0.21,0,0.358,0.241,0.358,0.241l-0.002-1.217c0,0-0.146,0.248-0.356,0.248h-4.556
				c0,0,0.201,0.166,0.201,0.373v5.661c0,0.209-0.203,0.376-0.203,0.376l4.558-0.004c0.21,0,0.363,0.239,0.363,0.239L80.26,60.97
				c0,0-0.152,0.233-0.362,0.233l-3.525,0.003v-2.156L79.232,59.052z"/>
			<path fill="#1B1B1B" d="M1.228,55.345l4.892,4.792l-0.003-4.145c0-0.308-0.24-0.474-0.24-0.474h1.337
				c0,0-0.231,0.171-0.231,0.478l-0.009,6.111l-4.899-4.824v4.28c0,0.205,0.242,0.367,0.242,0.367H0.995
				c0,0,0.235-0.163,0.235-0.367L1.228,55.345z"/>
			<path fill="#1B1B1B" d="M12.061,55.521c1.257-0.231,2.677,0.093,3.558,1.064c1.123,1.193,1.1,3.259-0.056,4.428
				c-1.379,1.401-3.875,1.432-5.32,0.118c-1.063-0.968-1.3-2.665-0.625-3.918C10.101,56.296,11.056,55.692,12.061,55.521
				 M12.049,56.308c-0.8,0.176-1.522,0.741-1.8,1.523c-0.307,0.886-0.17,1.976,0.501,2.673c0.954,0.965,2.594,1.058,3.731,0.373
				c1.376-0.812,1.494-3.02,0.273-4.023C14.016,56.235,12.972,56.102,12.049,56.308"/>
			<path fill="#1B1B1B" d="M54.707,55.477c1.26-0.23,2.676,0.095,3.555,1.063c1.127,1.198,1.1,3.263-0.05,4.429
				c-1.383,1.401-3.88,1.435-5.322,0.115c-1.065-0.964-1.302-2.662-0.624-3.912C52.747,56.254,53.701,55.654,54.707,55.477
				 M54.696,56.267c-0.766,0.171-1.47,0.692-1.763,1.44c-0.379,0.952-0.207,2.17,0.581,2.873c0.996,0.864,2.589,0.921,3.689,0.209
				c1.307-0.848,1.394-2.993,0.199-3.976C56.662,56.197,55.619,56.064,54.696,56.267"/>
			<path fill="#1B1B1B" d="M69.945,55.621c0.924-0.349,2.035-0.301,2.862,0.265c0.408,0.26,0.604,0.724,0.953,1.041
				c-0.388,0.102-0.77,0.231-1.136,0.385c0.015-0.192,0.119-0.435-0.068-0.576c-0.53-0.552-1.384-0.645-2.096-0.475
				c-0.406,0.111-0.874,0.362-0.949,0.824c-0.084,0.354,0.241,0.614,0.53,0.735c0.98,0.413,2.126,0.377,3.013,1.013
				c0.681,0.462,0.789,1.482,0.339,2.134c-0.422,0.632-1.177,0.947-1.907,1.046c-0.946,0.112-2.016-0.091-2.674-0.834
				c-0.242-0.267-0.353-0.674-0.733-0.795c0.374-0.117,0.745-0.25,1.118-0.38c0.03,0.292,0.107,0.606,0.361,0.789
				c0.584,0.503,1.433,0.563,2.159,0.396c0.506-0.123,1.051-0.48,1.087-1.044c0.051-0.349-0.205-0.647-0.496-0.786
				c-0.964-0.492-2.127-0.407-3.045-1.005c-0.433-0.263-0.684-0.785-0.603-1.29C68.733,56.363,69.322,55.855,69.945,55.621"/>
			<path fill="#1B1B1B" d="M18.126,55.518c0,0,2.145-0.002,3.218,0.003c0.487,0.009,1.002,0.076,1.407,0.369
				c0.648,0.449,0.902,1.428,0.463,2.107c-0.157,0.269-0.434,0.423-0.689,0.578c0.303,0.163,0.626,0.334,0.827,0.627
				c0.51,0.712,0.285,1.8-0.42,2.3c-0.458,0.333-1.039,0.435-1.593,0.432c-1.07,0-3.216-0.004-3.216-0.004s0.244-0.163,0.244-0.367
				l-0.008-5.715C18.359,55.64,18.126,55.518,18.126,55.518 M19.199,56.261l0.003,2.006l1.898,0.005
				c0.369-0.011,0.761-0.035,1.087-0.235c0.469-0.289,0.527-1.016,0.185-1.425c-0.304-0.288-0.749-0.33-1.152-0.351H19.199z
				 M19.201,59.011L19.2,61.195l2.025,0.004c0.413-0.009,0.863-0.051,1.203-0.317c0.445-0.363,0.48-1.136,0.044-1.524
				c-0.34-0.296-0.816-0.344-1.251-0.351L19.201,59.011z"/>
			<path fill="#1B1B1B" d="M25.758,55.516h1.291c0,0-0.233,0.164-0.233,0.373l0.002,5.317l3.512-0.003
				c0.216,0,0.374-0.316,0.374-0.316l0.001,1.284c0,0-0.159-0.238-0.371-0.238h-4.548c0,0,0.201-0.166,0.201-0.371
				c0-1.466,0.002-5.674,0.002-5.674C25.989,55.68,25.758,55.516,25.758,55.516"/>
			<path fill="#1B1B1B" d="M44.106,55.521h1.324c0,0-0.251,0.16-0.251,0.376l-0.003,1.851l3.792,1.232l0.002-3.083
				c0-0.216-0.235-0.376-0.235-0.376h1.319c0,0-0.239,0.16-0.239,0.376l0.004,5.651c0,0.22,0.237,0.383,0.237,0.383h-1.322
				c0,0,0.239-0.163,0.239-0.371l-0.004-1.859l-3.792-1.23l0.011,3.089c0,0.205,0.237,0.371,0.237,0.371h-1.322
				c0,0,0.242-0.163,0.242-0.371l-0.006-5.661C44.339,55.676,44.106,55.521,44.106,55.521"/>
			<path fill="#1B1B1B" d="M61.179,55.889v3.552c0.008,0.553,0.189,1.102,0.527,1.54c0.807,1.081,2.421,1.354,3.597,0.749
				c0.816-0.404,1.378-1.263,1.412-2.172l0.008-3.659c0-0.219,0.224-0.379,0.224-0.379h-1.316c0,0,0.238,0.16,0.238,0.371
				l0.004,3.194c0.007,0.492-0.062,1.019-0.358,1.432c-0.684,0.983-2.332,1.012-3.068,0.074c-0.319-0.386-0.415-0.903-0.417-1.39
				l-0.005-3.319c0-0.203,0.235-0.367,0.235-0.367h-1.305C60.954,55.516,61.179,55.686,61.179,55.889"/>
		</g>
	</g>
</g>
</svg>
