<?xml version="1.0" encoding="utf-8"?>
<!-- Generator: Adobe Illustrator 17.0.0, SVG Export Plug-In . SVG Version: 6.00 Build 0)  -->
<!DOCTYPE svg PUBLIC "-//W3C//DTD SVG 1.1//EN" "http://www.w3.org/Graphics/SVG/1.1/DTD/svg11.dtd">
<svg version="1.1" id="Layer_1" xmlns="http://www.w3.org/2000/svg" xmlns:xlink="http://www.w3.org/1999/xlink" x="0px" y="0px"
	 width="15px" height="25px" viewBox="0 0 15 25" enable-background="new 0 0 15 25" xml:space="preserve">
<g>
	<path fill-rule="evenodd" clip-rule="evenodd" fill="#FCFCFC" d="M0.293,13.175c0-1.85-0.013-3.699,0.003-5.549
		C0.323,4.222,3.168,1.388,6.57,1.381c1.182-0.004,2.368-0.091,3.534,0.242c2.637,0.748,4.591,3.268,4.599,6.013
		c0.012,3.686,0.015,7.371,0.002,11.057c-0.011,3.328-2.754,6.166-6.087,6.271c-1.208,0.04-2.426,0.113-3.62-0.222
		c-2.757-0.774-4.672-3.231-4.703-6.1c-0.02-1.822-0.004-3.644-0.004-5.467H0.293z M13.396,13.192c0.012,0,0.024,0,0.035,0
		c0-1.768,0.013-3.533-0.003-5.301c-0.025-2.671-1.686-4.7-4.291-5.143C8.29,2.604,7.403,2.655,6.536,2.682
		c-2.872,0.093-4.998,2.285-5.004,5.15c-0.009,3.617-0.006,7.234,0.003,10.852c0.005,2.366,1.804,4.538,4.144,4.881
		c1.042,0.153,2.123,0.146,3.178,0.08c2.344-0.147,4.431-2.239,4.524-4.573C13.457,17.115,13.396,15.152,13.396,13.192z"/>
	<path fill-rule="evenodd" clip-rule="evenodd" fill="#AE936C" d="M6.847,9.077c0-0.69-0.002-1.378,0-2.068
		c0.002-0.472,0.268-0.801,0.645-0.807c0.389-0.007,0.659,0.304,0.66,0.786c0.004,1.42,0.002,2.84-0.002,4.26
		c-0.001,0.468-0.288,0.799-0.662,0.79c-0.376-0.007-0.637-0.335-0.639-0.812C6.845,10.51,6.848,9.793,6.847,9.077z"/>
</g>
</svg>
